<svg width="78" height="35" viewBox="0 0 78 35" fill="none" xmlns="http://www.w3.org/2000/svg">
<rect width="35" height="35" rx="17.5" fill="#F6F8F9"/>
<path d="M23.7574 13.3652C22.1262 11.813 19.4711 11.813 17.8393 13.3649L17.5 13.6871L17.1611 13.365C15.5292 11.8129 12.8744 11.8131 11.2425 13.365C10.4412 14.1272 10 15.138 10 16.2112C10 17.2847 10.4412 18.2954 11.2426 19.0578L17.1377 24.6545C17.2391 24.751 17.3697 24.7991 17.5 24.7991C17.6303 24.7991 17.7607 24.7508 17.8623 24.6543L23.7574 19.0578C24.5586 18.2956 25 17.2847 25 16.2114C25 15.138 24.5586 14.1273 23.7574 13.3652ZM23.0321 18.2947L17.5 23.547L11.9681 18.2949C11.3777 17.7335 11.0526 16.9935 11.0526 16.2114C11.0526 15.4293 11.3777 14.6892 11.9681 14.1279C12.5839 13.5419 13.3926 13.2491 14.2016 13.2491C15.0107 13.2491 15.8198 13.5422 16.4356 14.1282L17.1374 14.7947C17.3405 14.9879 17.6593 14.9879 17.8625 14.7947L18.5644 14.1279C19.7961 12.9561 21.8002 12.9561 23.0319 14.1279C23.6221 14.6893 23.9474 15.4293 23.9474 16.2114C23.9474 16.9935 23.6221 17.7333 23.0321 18.2947Z" fill="#696969"/>
<path d="M49.298 23.084C48.57 23.084 47.87 22.9673 47.198 22.734C46.5353 22.5007 46.022 22.1927 45.658 21.81L46.064 21.012C46.4187 21.3667 46.89 21.656 47.478 21.88C48.066 22.0947 48.6727 22.202 49.298 22.202C50.1753 22.202 50.8333 22.0433 51.272 21.726C51.7107 21.3993 51.93 20.9793 51.93 20.466C51.93 20.074 51.8087 19.7613 51.566 19.528C51.3327 19.2947 51.0433 19.1173 50.698 18.996C50.3527 18.8653 49.872 18.7253 49.256 18.576C48.5187 18.3893 47.9307 18.212 47.492 18.044C47.0533 17.8667 46.6753 17.6007 46.358 17.246C46.05 16.8913 45.896 16.4107 45.896 15.804C45.896 15.3093 46.0267 14.8613 46.288 14.46C46.5493 14.0493 46.9507 13.7227 47.492 13.48C48.0333 13.2373 48.7053 13.116 49.508 13.116C50.068 13.116 50.614 13.1953 51.146 13.354C51.6873 13.5033 52.154 13.7133 52.546 13.984L52.196 14.81C51.7853 14.5393 51.3467 14.3387 50.88 14.208C50.4133 14.068 49.956 13.998 49.508 13.998C48.6493 13.998 48.0007 14.166 47.562 14.502C47.1327 14.8287 46.918 15.2533 46.918 15.776C46.918 16.168 47.0347 16.4853 47.268 16.728C47.5107 16.9613 47.8093 17.1433 48.164 17.274C48.528 17.3953 49.0133 17.5307 49.62 17.68C50.3387 17.8573 50.9173 18.0347 51.356 18.212C51.804 18.38 52.182 18.6413 52.49 18.996C52.798 19.3413 52.952 19.8127 52.952 20.41C52.952 20.9047 52.8167 21.3573 52.546 21.768C52.2847 22.1693 51.8787 22.4913 51.328 22.734C50.7773 22.9673 50.1007 23.084 49.298 23.084ZM57.5753 15.58C58.5366 15.58 59.2739 15.8227 59.7873 16.308C60.3006 16.784 60.5573 17.4933 60.5573 18.436V23H59.6053V21.852C59.3813 22.2347 59.0499 22.5333 58.6113 22.748C58.1819 22.9627 57.6686 23.07 57.0713 23.07C56.2499 23.07 55.5966 22.874 55.1113 22.482C54.6259 22.09 54.3833 21.572 54.3833 20.928C54.3833 20.3027 54.6073 19.7987 55.0553 19.416C55.5126 19.0333 56.2359 18.842 57.2253 18.842H59.5633V18.394C59.5633 17.7593 59.3859 17.2787 59.0313 16.952C58.6766 16.616 58.1586 16.448 57.4773 16.448C57.0106 16.448 56.5626 16.5273 56.1333 16.686C55.7039 16.8353 55.3353 17.0453 55.0273 17.316L54.5793 16.574C54.9526 16.2567 55.4006 16.014 55.9233 15.846C56.4459 15.6687 56.9966 15.58 57.5753 15.58ZM57.2253 22.286C57.7853 22.286 58.2659 22.16 58.6673 21.908C59.0686 21.6467 59.3673 21.2733 59.5633 20.788V19.584H57.2533C55.9933 19.584 55.3633 20.0227 55.3633 20.9C55.3633 21.3293 55.5266 21.67 55.8533 21.922C56.1799 22.1647 56.6373 22.286 57.2253 22.286ZM69.3084 15.636L66.0324 23H65.0104L61.7484 15.636H62.7844L65.5424 21.908L68.3284 15.636H69.3084ZM76.9152 19.626H70.7552C70.8112 20.3913 71.1052 21.012 71.6372 21.488C72.1692 21.9547 72.8412 22.188 73.6532 22.188C74.1105 22.188 74.5305 22.1087 74.9132 21.95C75.2959 21.782 75.6272 21.5393 75.9072 21.222L76.4672 21.866C76.1405 22.258 75.7299 22.5567 75.2352 22.762C74.7499 22.9673 74.2132 23.07 73.6252 23.07C72.8692 23.07 72.1972 22.9113 71.6092 22.594C71.0305 22.2673 70.5779 21.8193 70.2512 21.25C69.9245 20.6807 69.7612 20.0367 69.7612 19.318C69.7612 18.5993 69.9152 17.9553 70.2232 17.386C70.5405 16.8167 70.9699 16.3733 71.5112 16.056C72.0619 15.7387 72.6779 15.58 73.3592 15.58C74.0405 15.58 74.6519 15.7387 75.1932 16.056C75.7345 16.3733 76.1592 16.8167 76.4672 17.386C76.7752 17.946 76.9292 18.59 76.9292 19.318L76.9152 19.626ZM73.3592 16.434C72.6499 16.434 72.0525 16.6627 71.5672 17.12C71.0912 17.568 70.8205 18.156 70.7552 18.884H75.9772C75.9119 18.156 75.6365 17.568 75.1512 17.12C74.6752 16.6627 74.0779 16.434 73.3592 16.434Z" fill="#696969"/>
</svg>
