<svg width="35" height="35" viewBox="0 0 35 35" fill="none" xmlns="http://www.w3.org/2000/svg">
<rect width="35" height="35" rx="17.5" fill="#F6F8F9"/>
<g clip-path="url(#clip0_1987_29061)">
<path d="M21.1016 20.0781C20.2912 20.0781 19.5712 20.4719 19.1225 21.0781L15.2596 19.104C15.3244 18.8839 15.3594 18.651 15.3594 18.4102C15.3594 18.0839 15.2954 17.7724 15.1796 17.4872L19.2281 15.0548C19.6799 15.585 20.3521 15.9219 21.1016 15.9219C22.4585 15.9219 23.5625 14.8179 23.5625 13.4609C23.5625 12.104 22.4585 11 21.1016 11C19.7446 11 18.6406 12.104 18.6406 13.4609C18.6406 13.7746 18.6997 14.0746 18.8071 14.3507L14.7485 16.7892C14.2971 16.2747 13.6351 15.9492 12.8984 15.9492C11.5415 15.9492 10.4375 17.0532 10.4375 18.4102C10.4375 19.7671 11.5415 20.8711 12.8984 20.8711C13.7221 20.8711 14.4524 20.4643 14.8994 19.8412L18.751 21.8095C18.6793 22.0401 18.6406 22.2851 18.6406 22.5391C18.6406 23.896 19.7446 25 21.1016 25C22.4585 25 23.5625 23.896 23.5625 22.5391C23.5625 21.1821 22.4585 20.0781 21.1016 20.0781ZM21.1016 11.8203C22.0062 11.8203 22.7422 12.5563 22.7422 13.4609C22.7422 14.3656 22.0062 15.1016 21.1016 15.1016C20.1969 15.1016 19.4609 14.3656 19.4609 13.4609C19.4609 12.5563 20.1969 11.8203 21.1016 11.8203ZM12.8984 20.0508C11.9938 20.0508 11.2578 19.3148 11.2578 18.4102C11.2578 17.5055 11.9938 16.7695 12.8984 16.7695C13.8031 16.7695 14.5391 17.5055 14.5391 18.4102C14.5391 19.3148 13.8031 20.0508 12.8984 20.0508ZM21.1016 24.1797C20.1969 24.1797 19.4609 23.4437 19.4609 22.5391C19.4609 21.6344 20.1969 20.8984 21.1016 20.8984C22.0062 20.8984 22.7422 21.6344 22.7422 22.5391C22.7422 23.4437 22.0062 24.1797 21.1016 24.1797Z" fill="#696969"/>
</g>
<defs>
<clipPath id="clip0_1987_29061">
<rect width="14" height="14" fill="white" transform="translate(10 11)"/>
</clipPath>
</defs>
</svg>
